<?xml version="1.0" standalone="no"?>
<!DOCTYPE svg PUBLIC "-//W3C//DTD SVG 20010904//EN"
 "http://www.w3.org/TR/2001/REC-SVG-20010904/DTD/svg10.dtd">
<svg version="1.0" xmlns="http://www.w3.org/2000/svg"
 width="600.000000pt" height="600.000000pt" viewBox="0 0 600.000000 600.000000"
 preserveAspectRatio="xMidYMid meet">
<metadata>
Created by potrace 1.11, written by Peter Selinger 2001-2013
</metadata>
<g transform="translate(0.000000,600.000000) scale(0.100000,-0.100000)"
fill="#000000" stroke="none">
<path d="M0 3000 l0 -3000 3000 0 3000 0 0 3000 0 3000 -3000 0 -3000 0 0
-3000z m4477 1478 l23 -21 0 -1012 0 -1012 -58 -12 c-178 -35 -300 -224 -262
-408 15 -72 40 -122 88 -175 38 -42 140 -98 179 -98 50 0 53 -7 53 -103 0 -79
-3 -94 -22 -114 l-21 -23 -1456 0 -1455 0 -23 22 -23 21 0 996 c0 605 4 1041
10 1111 15 158 41 257 99 375 86 173 193 280 366 366 114 56 218 85 355 97 52
5 551 10 1109 11 l1015 1 23 -22z"/>
<path d="M2335 4379 c-345 -33 -590 -224 -679 -531 -42 -146 -46 -252 -46
-1275 l0 -963 1390 0 c1105 0 1390 3 1390 13 0 6 -31 26 -69 44 -283 133 -346
518 -122 741 37 38 78 67 123 87 l67 30 1 933 0 932 -982 -1 c-541 -1 -1023
-6 -1073 -10z m371 -634 c67 -30 129 -93 163 -164 22 -48 26 -69 26 -151 0
-89 -2 -99 -34 -158 -38 -70 -89 -119 -160 -153 -71 -35 -187 -33 -263 4 -72
35 -140 110 -168 185 -29 76 -25 205 8 273 81 168 264 238 428 164z m1200
-169 c158 -73 191 -289 63 -414 -119 -116 -302 -84 -381 67 -67 129 -7 299
126 357 50 21 134 17 192 -10z m-567 -707 c123 -28 269 -145 324 -259 155
-322 -24 -694 -361 -752 -241 -41 -481 125 -547 378 -69 266 93 560 346 628
63 17 176 20 238 5z"/>
<path d="M2500 3589 c-82 -47 -112 -155 -68 -239 36 -67 80 -93 148 -88 64 5
99 26 128 78 28 50 35 92 22 139 -29 108 -141 162 -230 110z"/>
<path d="M3757 3420 c-34 -27 -44 -78 -23 -118 39 -76 146 -46 146 40 0 50 -8
66 -41 83 -37 20 -51 19 -82 -5z"/>
<path d="M3150 2707 c-128 -36 -217 -142 -242 -285 -10 -59 -9 -79 5 -138 29
-119 124 -225 225 -254 156 -43 312 33 385 188 27 58 31 77 30 147 0 101 -27
176 -89 244 -80 89 -207 128 -314 98z"/>
</g>
</svg>
