<?xml version="1.0" encoding="UTF-8"?>
<svg width="1024px" height="1024px" viewBox="0 0 1024 1024" version="1.1" xmlns="http://www.w3.org/2000/svg" xmlns:xlink="http://www.w3.org/1999/xlink">
    <!-- Generator: Sketch 56.3 (81716) - https://sketch.com -->
    <title>Artboard</title>
    <desc>Created with Sketch.</desc>
    <defs>
        <circle id="path-1" cx="513.5" cy="509.5" r="424.5"></circle>
        <filter x="-5.9%" y="-5.9%" width="111.8%" height="111.8%" filterUnits="objectBoundingBox" id="filter-2">
            <feMorphology radius="50" operator="erode" in="SourceAlpha" result="shadowSpreadInner1"></feMorphology>
            <feGaussianBlur stdDeviation="5" in="shadowSpreadInner1" result="shadowBlurInner1"></feGaussianBlur>
            <feOffset dx="0" dy="-40" in="shadowBlurInner1" result="shadowOffsetInner1"></feOffset>
            <feComposite in="shadowOffsetInner1" in2="SourceAlpha" operator="arithmetic" k2="-1" k3="1" result="shadowInnerInner1"></feComposite>
            <feColorMatrix values="0 0 0 0 0.890196078   0 0 0 0 0.898039216   0 0 0 0 0.901960784  0 0 0 1 0" type="matrix" in="shadowInnerInner1"></feColorMatrix>
        </filter>
        <radialGradient cx="7.38207052%" cy="17.055914%" fx="7.38207052%" fy="17.055914%" r="105.532701%" gradientTransform="translate(0.073821,0.170559),scale(0.710774,1.000000),rotate(45.555093),scale(1.000000,0.297901),translate(-0.073821,-0.170559)" id="radialGradient-3">
            <stop stop-color="#FFFFFF" offset="0%"></stop>
            <stop stop-color="#F6D204" offset="100%"></stop>
        </radialGradient>
        <radialGradient cx="36.4764455%" cy="18.6782163%" fx="36.4764455%" fy="18.6782163%" r="37.8970872%" gradientTransform="translate(0.364764,0.186782),scale(0.998866,1.000000),rotate(38.489313),scale(1.000000,0.511853),translate(-0.364764,-0.186782)" id="radialGradient-4">
            <stop stop-color="#555555" offset="0%"></stop>
            <stop stop-color="#312D29" offset="100%"></stop>
        </radialGradient>
        <path d="M396.304441,0.765580509 C423.569207,-0.330621588 450.951929,-0.499268064 478.166142,1.94610584 C537.784648,8.92806997 596.22359,28.0188511 647.551449,59.3365018 C677.647168,77.0106525 705.805032,98.1757853 730.13774,123.270381 C799.192753,190.189303 844.218374,281.325859 855.609586,376.847223 C856.216219,390.001648 860.631156,402.751322 859.923418,416.023799 C859.232531,434.608641 861.591658,453.497046 856.873404,471.727731 C850.874482,537.567315 829.103111,601.973404 793.581401,657.727929 C755.144484,718.896006 701.238436,770.147671 638.435109,805.765806 C589.095657,833.288911 534.229107,850.558311 478.166142,857.0512 C454.018794,859.226739 429.77034,859.159281 405.572439,858.703935 C304.197388,854.099887 205.215167,810.690284 132.469805,739.976816 C118.298193,725.506948 103.5368,711.441832 91.6737618,694.931342 C47.8445552,639.817674 18.3049169,573.489014 6.15541371,504.158448 C3.07169791,492.943457 4.06590136,481.171933 1.70677452,469.83889 C-0.70290504,458.236012 0.274447509,446.329571 0.190192979,434.574912 C0.291298415,424.439259 0.0216839187,414.286741 0.105938449,404.151087 C0.139640261,393.357713 3.56037418,382.935361 3.64462871,372.141986 C3.86369049,360.842672 7.45293347,350.015569 9.25598042,338.95236 C21.8099054,279.639394 47.524388,223.294606 83.4673705,174.53891 C93.9823359,160.979733 104.261389,147.150722 116.646804,135.193687 C142.260182,107.670582 171.159485,83.0819257 203.479523,63.7719041 C261.278131,27.4285884 328.159377,5.25157678 396.304441,0.765580509 M407.291231,30.7846533 C394.198077,30.3630371 381.020669,30.7171947 368.331937,34.2756354 C292.654518,45.0858745 221.240378,79.9619658 163.913596,130.252345 C159.667168,133.659004 158.875175,139.308661 158.858324,144.418649 C158.97628,226.515754 158.892026,308.629723 158.908877,390.726828 C159.094237,399.547039 157.998928,408.519031 159.667168,417.254919 C162.49812,420.56039 167.401733,419.80148 171.311144,420.172503 C198.323146,419.902668 225.351999,420.071315 252.364002,420.121909 C255.582525,419.649699 260.165971,420.408608 262.053273,417.120002 C263.805767,409.598369 262.777861,401.756308 262.92952,394.099757 C262.845265,304.160592 262.963221,214.221426 262.862116,124.265395 C263.013774,116.861815 262.019571,109.272723 263.839469,102.020925 C267.02429,98.7829126 271.30442,96.99526 275.331786,95.0726901 C311.241067,78.8657637 349.576878,67.4821266 388.85634,63.7044455 C415.514474,59.9098998 442.745538,59.8424412 469.403671,63.7719041 C509.138107,67.5158559 547.945744,79.0850042 584.208894,95.5786296 C587.899242,97.3156883 591.7581,98.9515591 594.841815,101.683632 C596.105633,108.581273 595.330492,115.630696 595.397895,122.57893 C595.279939,218.167753 595.515852,313.739711 595.279939,409.328534 C595.347343,412.566547 595.583255,415.838288 596.341546,419.008842 C604.531086,420.77963 612.990241,420.003856 621.297738,420.071315 C639.833735,420.037586 658.369731,419.970127 676.905728,420.105044 C684.050512,420.08818 691.330103,420.610984 698.373782,419.008842 C701.373243,403.510231 697.767149,387.809244 697.817702,372.226309 C697.918808,294.581472 697.851404,216.936634 697.885106,139.325526 C698.407484,130.252345 689.139486,126.154236 683.309072,121.128571 C652.455063,95.8147346 618.028662,74.8182483 581.142029,59.5557422 C552.192172,48.0203232 522.163858,38.4749326 491.14134,34.629793 C482.901247,33.145704 474.745408,30.8521119 466.319955,30.8183826 C446.638097,30.7846533 426.97309,30.1437967 407.291231,30.7846533 M368.348788,306.605966 C327.940315,325.966581 298.46808,366.779028 293.732976,411.487209 C292.536561,423.005764 294.676627,434.692964 292.469158,446.127195 C284.229065,447.763066 275.76991,446.987292 267.428712,447.054751 C198.896077,446.987292 130.380293,447.08848 61.8476581,447.004157 C54.4164085,447.12221 46.8503517,446.194654 39.5370585,447.746202 C36.4196409,449.348343 37.5486516,453.446453 37.2790371,456.296578 C41.2727019,540.518628 75.9013137,622.362763 131.273391,685.638921 C148.023191,706.433032 168.362235,723.955401 189.274209,740.415297 C235.142376,776.539372 289.570802,801.380998 346.611119,813.422356 C357.244041,815.243738 367.691602,818.582939 378.577288,818.51548 C392.715198,818.380563 406.566643,821.85468 420.704553,821.85468 C431.960958,822.040191 443.251065,821.939004 454.423216,820.387456 C467.061395,818.599803 479.935487,818.869638 492.489412,816.390534 C550.759845,808.312368 606.08137,784.04414 654.291812,750.736461 C718.527466,704.729702 770.344002,640.273019 797.440259,565.680683 C806.893617,537.887743 814.864095,509.453947 818.200575,480.210648 C819.177927,469.923213 823.474908,458.927463 819.531796,448.892998 C812.454416,448.032901 805.326483,448.589434 798.232251,448.555705 C724.071414,448.656893 649.910576,448.420788 575.76659,448.673757 C572.463812,448.589434 569.161035,448.387058 565.942512,447.712472 C563.381174,434.085837 566.65025,419.986992 563.162112,406.44468 C558.157393,379.410649 545.283301,353.928167 526.275479,334.044747 C508.834791,316.977724 487.450991,303.013796 463.303643,297.954401 C450.395849,295.37411 437.302695,292.827548 424.057883,293.333488 C404.881552,294.277908 385.941134,298.881957 368.348788,306.605966 M421.563949,310.923315 C436.27479,309.439226 450.918227,312.812156 465.022435,316.691025 C482.109254,321.514314 496.820095,332.054719 510.149162,343.438356 C530.151187,363.203723 544.019483,389.765543 546.176399,418.013828 C546.900988,432.28132 547.339111,446.919834 542.789367,460.664522 C536.099557,486.669808 518.726273,508.779361 497.763746,524.986288 C477.357299,539.321238 452.384256,547.062112 427.478617,547.095841 C401.056396,546.050233 374.364561,537.145699 354.244579,519.589601 C336.011899,504.293365 322.160454,483.634172 315.672855,460.664522 C310.853496,441.927898 312.336376,422.364907 314.493292,403.358449 C321.048294,374.081421 338.876553,347.114849 364.30457,330.907923 C381.121774,319.035211 401.30916,313.216907 421.563949,310.923315 M419.794604,349.442171 C396.304441,350.943124 375.712634,365.784014 362.130803,384.301397 C352.424681,398.433972 347.773831,415.855153 348.751184,432.97277 C349.206158,458.80941 364.607887,482.200677 384.542508,497.648694 C396.28759,505.119733 409.936824,510.634473 424.108436,509.875564 C435.213183,509.673188 446.857159,510.836848 457.338422,506.317123 C473.582696,499.402617 488.984424,488.761025 498.03336,473.245549 C504.301897,464.32415 506.475664,453.497046 508.312413,442.956642 C511.396129,428.385586 508.025948,413.443508 504.436705,399.310934 C497.730044,382.463151 485.428883,367.504208 469.134057,359.206802 C454.473768,350.083027 436.696062,347.941217 419.794604,349.442171" id="path-5"></path>
        <filter x="-1.7%" y="-1.7%" width="107.0%" height="107.0%" filterUnits="objectBoundingBox" id="filter-6">
            <feOffset dx="20" dy="20" in="SourceAlpha" result="shadowOffsetOuter1"></feOffset>
            <feGaussianBlur stdDeviation="5" in="shadowOffsetOuter1" result="shadowBlurOuter1"></feGaussianBlur>
            <feColorMatrix values="0 0 0 0 0.678431373   0 0 0 0 0.682352941   0 0 0 0 0.682352941  0 0 0 0.4 0" type="matrix" in="shadowBlurOuter1"></feColorMatrix>
        </filter>
    </defs>
    <g id="Artboard" stroke="none" stroke-width="1" fill="none" fill-rule="evenodd">
        <rect fill="#FFFFFF" x="0" y="0" width="1024" height="1024"></rect>
        <g id="Oval">
            <use fill="#F5F7F9" fill-rule="evenodd" xlink:href="#path-1"></use>
            <use fill="black" fill-opacity="1" filter="url(#filter-2)" xlink:href="#path-1"></use>
        </g>
        <path d="M206.5022,212.681644 C309.220031,124.165572 411.052631,79.9075362 512,79.9075362 C612.947369,79.9075362 713.75412,124.165572 814.420252,212.681644 L814.420252,512 L672.698389,512 L656.574299,191.607274 L357.32835,191.607274 L357.32835,510 L206.5022,512 L206.5022,212.681644 Z" id="Path-3" fill="url(#radialGradient-3)"></path>
        <g id="WX20190903-092754@2x" transform="translate(82.000000, 82.000000)">
            <g id="Fill-2">
                <use fill="black" fill-opacity="1" filter="url(#filter-6)" xlink:href="#path-5"></use>
                <use fill="url(#radialGradient-4)" fill-rule="evenodd" xlink:href="#path-5"></use>
            </g>
        </g>
    </g>
</svg>